<svg xmlns="http://www.w3.org/2000/svg" viewBox="0 0 221.33 114.35">
  <path fill="#10b981" d="M59.47,37.37l.06,5.59-8.51.05-.12,6.47-7.89-.1v2.81s-2.22.06-2.22.06l-.1,6.93-9.9.25-.11,6.27-7.16.17-.05,7.97-5.32.18v21.01s11.16.19,11.16.19l.19,6.35,9.28.08.16,6.01,20.67.19.13,6.5-46.46-.14-.48-7.41-7.36-.44-.24-6.74-5.19-.23.13-21.7,6.84-.44.06-8.58,6.33-.23.09-7.19h6.27s.12-5.64.12-5.64l6.01-.1.52-4.41,5.36-.32.34-3.85,5.9-.31.46-3.45,7.54-.18.14-5.53,9.44-.07"/>
  <polyline fill="#10b981" points="214.17 22.67 204.58 22.7 204.66 15.98 196.08 15.68 195.86 7.9 148.96 7.93 148.81 13.79 114.91 13.79 114.94 7.24 143.91 7.19 144.14 0 214.17 0"/>
  <polygon fill="#10b981" points="114.43 21.6 92.3 21.3 92.17 14.42 114.63 14.43 114.43 21.6"/>
  <polygon fill="#10b981" points="91.89 29.07 73.29 29.04 73.34 21.96 91.87 21.65 91.89 29.07"/>
  <polygon fill="#10b981" points="72.95 35.82 59.81 35.85 59.8 29.34 72.79 29.46 72.95 35.82"/>
</svg>
